<svg width="138" height="34" viewBox="0 0 138 34" fill="none" xmlns="http://www.w3.org/2000/svg">
<path d="M87.1699 25.448C87.312 27.2796 88.6644 28.9685 91.375 28.9685C93.4321 28.9685 94.4151 27.8901 94.4151 26.669C94.4151 25.6363 93.7105 24.7918 91.9375 24.4152L88.8974 23.7134C84.4537 22.7263 82.4477 20.0503 82.4477 16.8151C82.4477 12.6841 86.0959 9.25485 91.0511 9.25485C97.5973 9.25485 99.7908 13.4315 100.075 15.9193L94.8868 17.0947C94.6992 15.731 93.7162 13.9964 91.1022 13.9964C89.4657 13.9964 88.1587 14.9835 88.1587 16.2958C88.1587 17.4199 88.9997 18.1274 90.2612 18.3614L93.5343 19.0632C98.069 20.0046 100.359 22.772 100.359 26.1498C100.359 29.9042 97.461 33.7557 91.4318 33.7557C84.5162 33.7557 82.1295 29.2481 81.8511 26.6177L87.1813 25.4423L87.1699 25.448Z" fill="#3D3935"/>
<path d="M124.146 26.4351C122.975 30.4235 119.327 33.7557 113.673 33.7557C107.36 33.7557 101.797 29.2024 101.797 21.4083C101.797 14.042 107.218 9.24915 113.111 9.24915C120.214 9.24915 124.47 13.8024 124.47 21.22C124.47 22.1101 124.379 23.0515 124.379 23.1428H107.922C108.064 26.1955 110.633 28.3979 113.719 28.3979C116.617 28.3979 118.208 26.9429 118.952 24.8774L124.14 26.4294L124.146 26.4351ZM118.35 18.8749C118.259 16.5754 116.759 14.3216 113.207 14.3216C109.979 14.3216 108.207 16.7637 108.064 18.8749H118.35Z" fill="#3D3935"/>
<path d="M132.67 9.95666H138V15.497H132.67V25.1684C132.67 27.1883 133.602 27.8444 135.38 27.8444C136.13 27.8444 136.971 27.7531 137.295 27.6561V32.8199C136.733 33.0539 135.613 33.3848 133.789 33.3848C129.3 33.3848 126.499 30.7088 126.499 26.2468V3.02979H132.67V9.95666Z" fill="#3D3935"/>
<path d="M75.1741 9.95666H80.5044V15.497H75.1741V25.1684C75.1741 27.1883 76.1061 27.8444 77.8847 27.8444C78.6348 27.8444 79.4758 27.7531 79.7997 27.6561V32.8199C79.2372 33.0539 78.1177 33.3848 76.2936 33.3848C71.8044 33.3848 69.0029 30.7088 69.0029 26.2468V3.02979H75.1741V9.95666Z" fill="#3D3935"/>
<path d="M59.6722 9.95667V23.3425C59.6722 26.4066 57.9731 27.9357 55.3137 27.9357C52.6543 27.9357 50.9552 26.4066 50.9552 23.3425V9.95667H44.8181V23.4509C44.8181 30.1268 49.4891 33.653 55.3137 33.653C61.1383 33.653 65.8093 30.1268 65.8093 23.4509V9.95667H59.6722Z" fill="#3D3935"/>
<path d="M25.2985 0C16.0132 0 8.48389 7.56022 8.48389 16.8893C8.48389 26.2183 16.0132 33.7785 25.3041 33.7785C34.5951 33.7785 42.1244 26.2183 42.1244 16.8893C42.1244 7.56022 34.5894 0 25.2985 0ZM25.2985 27.2796C19.5818 27.2796 14.9506 22.6293 14.9506 16.8893C14.9506 11.1492 19.5818 6.49894 25.2985 6.49894C31.0151 6.49894 35.6463 11.1492 35.6463 16.8893C35.6463 22.6293 31.0151 27.2796 25.2985 27.2796Z" fill="#FF6A39"/>
<path d="M4.38691 33.419C6.80973 33.419 8.77381 31.4469 8.77381 29.0141C8.77381 26.5814 6.80973 24.6092 4.38691 24.6092C1.96408 24.6092 0 26.5814 0 29.0141C0 31.4469 1.96408 33.419 4.38691 33.419Z" fill="#FF6A39"/>
</svg>
